<svg width="222" height="223" viewBox="0 0 222 223" fill="none" xmlns="http://www.w3.org/2000/svg">
<g id="AI">
<path id="Vector" d="M132.4 157.5C132.4 157.9 132.2 158 131.8 158H117.5C116.9 158 116.5 157.8 116.3 157.5L109.1 131.6H81.9001C77.3001 149 74.9 157.7 74.7 157.9C74.6 158 72.1001 158.1 67.4001 158.1C62.8001 158.1 60.5001 158 60.4001 157.9C60.3001 157.8 60.2 157.6 60.2 157.3C60.2 157.1 64.3001 142.8 72.4001 114.4C80.7001 85.3 84.9 70.3 85.1 69.3C85.3 68.3 85.4 66.8 85.5 64.8C85.5 64.2 85.7 63.9 86 63.9C98.4 63.9 104.7 63.9 104.8 64.1C105 64.2 109.6 79.8 118.7 110.8C127.9 141.8 132.4 157.4 132.4 157.5ZM105.6 117.8L102.8 106.5C99.2 92.7 96.7 83 95.5 77.5H95.3C93.7 85.7 90.5 99.1 85.5 117.8H105.6Z" fill="black"/>
<path id="Vector_2" d="M160.7 89.6V157C160.7 157.7 160.4 158.1 159.7 158.1H146.3C145.6 158.1 145.2 157.7 145.2 157L145.1 89.5C145.1 88.9 145.5 88.6 146.2 88.6H159.9C160.4 88.7 160.7 89 160.7 89.6Z" fill="black"/>
<path id="Vector_3" d="M153 61.5C158.7 62.1 161.5 65.1 161.5 70.3C161.5 73.1 160.7 75.2 159 76.8C157.4 78.3 155.3 79.1 152.7 79.1C146.9 78.8 144 75.9 144 70.3C144 67.5 144.8 65.4 146.5 63.8C148.3 62.3 150.4 61.5 153 61.5Z" fill="black"/>
<path id="Vector_4" d="M70.8 209.3C58 204 46.5 196.3 36.5 186.3C26.4 176.3 18.8 164.8 13.5 152C8.2 139.2 5.5 125.7 5.5 111.6C5.5 97.5 8.2 84 13.5 71.2C18.8 58.4 26.5 46.9 36.5 36.9C46.5 26.9 58 19.2 70.8 13.9C83.6 8.60002 97.1 5.90002 111.2 5.90002C125.3 5.90002 138.8 8.50002 151.6 13.9C164.4 19.2 175.9 26.9 185.9 36.9C195.9 46.9 203.6 58.4 208.9 71.2C214.2 84 216.9 97.5 216.9 111.6C216.9 125.7 214.2 139.2 208.9 152C203.6 164.8 195.9 176.3 185.9 186.3C175.9 196.4 164.4 204 151.6 209.3C138.8 214.6 125.3 217.3 111.2 217.3C97.1 217.3 83.7 214.6 70.8 209.3Z" stroke="black" stroke-width="10" stroke-miterlimit="10"/>
</g>
</svg>
