<svg width="222" height="222" viewBox="0 0 222 222" fill="none" xmlns="http://www.w3.org/2000/svg">
<g id="Id">
<path id="Vector" d="M135.2 97.5C123 97.5 116 105.8 114.2 122.3C114.2 139.1 120.8 147.4 134.1 147.4C136.9 147.4 139.2 147 140.9 146.2V98.3C141 97.8 139 97.5 135.2 97.5ZM158.8 156.3L157.8 156.5C148.6 160.4 140.3 162.4 133 162.4C122.7 162.4 114.1 159.1 107.4 152.5C100.7 145.9 97.3 136.1 97.3 123.2C97.3 111.9 100.8 102.3 107.7 94.6C114.6 86.9 124.1 83.1 136.2 83.1H141.1V57.7C141.1 57.3 143.8 57.2 149.3 57.2H157.8C157.9 120.4 158.2 153.4 158.8 156.3Z" fill="#EB43A3"/>
<path id="Vector_2" d="M80 57.4C80.1 57.5 80.1 61.9 80.1 70.4C80.1 129.9 80 159.9 79.8 160.2C79.6 160.5 76.8001 160.7 71.4001 160.7C66.4001 160.7 63.8 160.6 63.6 160.3C63.4 160 63.3 142.9 63.3 108.9C63.3 74.7 63.4 57.6 63.6 57.5C63.8 57.4 66.6 57.3 71.8 57.3C77.2 57.2 80 57.2 80 57.4Z" fill="#EB43A3"/>
<path id="Vector_3" d="M70.7 208.5C57.9 203.2 46.4 195.5 36.4 185.5C26.4 175.5 18.7 164 13.4 151.2C8.10002 138.4 5.40002 124.9 5.40002 110.8C5.40002 96.7 8.10002 83.2 13.4 70.4C18.7 57.6 26.4 46.1 36.4 36.1C46.4 26.1 57.9 18.4 70.7 13.1C83.5 7.80001 97 5.10001 111.1 5.10001C125.2 5.10001 138.7 7.70001 151.5 13.1C164.3 18.5 175.8 26.1 185.8 36.1C195.9 46.2 203.5 57.6 208.8 70.4C214.1 83.2 216.8 96.7 216.8 110.8C216.8 124.9 214.1 138.4 208.8 151.2C203.5 164 195.8 175.5 185.8 185.5C175.8 195.6 164.3 203.2 151.5 208.5C138.7 213.8 125.2 216.5 111.1 216.5C97 216.5 83.5 213.8 70.7 208.5Z" stroke="#EB43A3" stroke-width="10" stroke-miterlimit="10"/>
</g>
</svg>
