<?xml version="1.0" standalone="no"?>
<!DOCTYPE svg PUBLIC "-//W3C//DTD SVG 20010904//EN"
 "http://www.w3.org/TR/2001/REC-SVG-20010904/DTD/svg10.dtd">
<svg version="1.0" xmlns="http://www.w3.org/2000/svg"
 width="666.000000pt" height="295.000000pt" viewBox="0 0 666.000000 295.000000"
 preserveAspectRatio="xMidYMid meet">

<g transform="translate(0.000000,295.000000) scale(0.100000,-0.100000)"
fill="#000000" stroke="none">
<path d="M2850 1480 l0 -1270 50 0 50 0 0 1270 0 1270 -50 0 -50 0 0 -1270z"/>
<path d="M460 2670 l-45 -18 3 -73 c3 -82 26 -220 49 -289 18 -57 86 -191 152
-300 28 -47 51 -91 51 -99 0 -9 4 -10 13 -4 6 6 49 13 94 17 72 6 83 4 92 -11
10 -17 10 -17 11 0 0 9 12 27 27 40 80 65 143 133 169 180 27 49 29 59 28 162
0 90 -4 120 -23 168 -31 78 -94 153 -161 191 l-55 31 -153 -2 c-115 -2 -160 1
-180 11 -24 12 -33 12 -72 -4z m435 -79 c52 -23 90 -68 129 -151 26 -57 30
-76 30 -155 1 -81 -2 -95 -29 -144 -37 -67 -150 -173 -203 -190 -56 -19 -89
-7 -145 51 -63 64 -120 183 -153 318 -32 128 -29 189 9 228 56 55 277 82 362
43z"/>
<path d="M2485 2535 c-190 -30 -277 -65 -486 -196 -107 -68 -131 -79 -170 -79
-52 0 -118 -28 -165 -69 -22 -20 -49 -32 -81 -36 -138 -20 -321 -73 -416 -121
-38 -19 -112 -64 -165 -99 -53 -36 -103 -65 -109 -65 -16 0 -16 1 1 -47 l14
-39 -73 -57 -73 -56 -19 22 c-11 12 -27 33 -36 47 -10 13 -17 21 -17 16 0 -5
16 -30 35 -56 30 -41 37 -62 51 -151 19 -122 57 -273 87 -344 11 -27 55 -107
96 -177 82 -138 74 -133 147 -103 21 9 39 28 54 56 15 31 46 62 102 104 119
89 163 141 177 205 7 30 9 82 5 122 -4 46 -2 68 5 68 6 0 11 -6 11 -12 0 -9 3
-9 8 -3 4 6 42 27 84 47 98 47 151 95 187 172 35 72 55 195 46 270 l-7 54 47
21 c26 12 52 21 57 21 5 0 44 -35 86 -79 46 -47 98 -89 130 -105 167 -84 426
-3 514 161 38 71 42 103 27 241 -11 112 -11 128 3 153 15 26 15 31 -2 76 -21
56 -29 58 -155 38z m30 -118 c40 -40 65 -122 72 -234 5 -70 3 -87 -16 -127
-28 -56 -67 -90 -151 -130 -52 -25 -81 -32 -147 -34 -108 -5 -168 21 -259 112
-114 114 -120 173 -28 261 66 64 160 114 274 148 111 33 117 34 174 36 42 1
52 -3 81 -32z m-639 -224 c15 -122 15 -122 -41 -144 -27 -10 -57 -19 -65 -19
-8 1 -38 31 -67 68 -48 62 -51 68 -36 84 28 31 115 68 159 68 l43 0 7 -57z
m-216 -122 c48 -34 60 -74 56 -193 -3 -92 -7 -115 -30 -162 -42 -86 -111 -138
-229 -176 -21 -6 -39 -10 -40 -8 -1 1 -15 30 -32 62 -51 103 -117 153 -245
186 -63 17 -65 18 -68 52 -4 47 30 87 122 140 192 113 388 154 466 99z m-602
-404 c77 -101 161 -176 215 -192 28 -8 63 -15 78 -15 32 0 39 -18 39 -100 0
-76 -29 -123 -115 -188 -76 -56 -156 -92 -209 -92 -58 0 -131 97 -192 255 -37
98 -43 129 -45 222 -1 108 16 141 86 164 65 22 93 11 143 -54z m150 27 c28
-14 65 -41 82 -61 36 -41 67 -100 57 -109 -4 -4 -26 -2 -49 5 -45 13 -135 98
-171 160 l-18 31 23 0 c13 0 47 -12 76 -26z"/>
<path d="M4052 2498 c-113 -17 -212 -95 -266 -208 -28 -59 -31 -74 -31 -165 0
-93 2 -105 32 -166 39 -79 102 -140 181 -177 48 -23 71 -27 142 -27 73 0 93 4
141 28 67 32 137 104 175 178 33 65 44 181 25 265 -15 65 -75 157 -131 203
-71 57 -175 84 -268 69z m135 -123 c59 -25 96 -59 127 -114 59 -109 42 -236
-43 -321 -142 -142 -350 -72 -402 133 -29 117 49 262 163 304 47 16 112 16
155 -2z"/>
<path d="M3442 2428 c-21 -29 -71 -99 -112 -155 -40 -56 -77 -100 -81 -97 -4
2 -45 57 -91 122 l-83 117 -3 -93 -3 -93 74 -102 c62 -87 78 -102 104 -105 37
-4 43 2 129 123 37 52 71 95 76 95 4 0 8 -106 8 -235 0 -221 1 -235 19 -245
31 -16 59 -12 75 12 14 19 16 70 16 349 0 303 -1 327 -18 342 -35 32 -68 22
-110 -35z"/>
<path d="M4686 2458 c-14 -19 -16 -69 -16 -343 0 -274 2 -324 16 -343 15 -21
20 -22 213 -22 179 0 199 2 214 18 22 24 21 55 -1 75 -15 13 -47 17 -172 19
l-155 3 -3 294 c-1 197 -6 299 -13 308 -18 21 -66 16 -83 -9z"/>
<path d="M5282 2468 c-9 -9 -12 -100 -12 -349 0 -294 2 -340 16 -353 13 -13
46 -16 209 -16 210 0 225 4 225 55 0 49 -19 55 -186 55 l-154 0 0 100 0 100
133 0 c117 0 136 2 150 18 20 22 22 63 5 80 -8 8 -56 12 -150 12 l-138 0 0
100 0 100 153 0 c136 0 156 2 170 18 20 22 22 63 5 80 -17 17 -409 17 -426 0z"/>
<path d="M5923 2468 c-12 -6 -24 -20 -27 -32 -3 -11 -6 -158 -6 -326 0 -331 3
-352 51 -358 56 -7 59 8 59 259 0 126 3 229 8 229 4 -1 68 -87 142 -191 190
-268 216 -299 245 -299 53 0 55 16 55 366 0 298 -1 322 -18 337 -23 21 -56 22
-76 1 -14 -13 -16 -49 -16 -240 0 -123 -3 -224 -7 -224 -5 0 -82 104 -173 231
-147 205 -192 261 -210 258 -3 0 -15 -5 -27 -11z"/>
<path d="M672 1825 c0 -11 3 -29 8 -40 11 -25 11 1 0 35 -6 20 -8 21 -8 5z"/>
<path d="M5050 970 l0 -530 69 0 68 0 5 68 c11 145 99 232 235 232 46 0 69 -6
111 -30 76 -44 105 -95 110 -192 l4 -78 74 0 74 0 0 63 c0 110 -40 209 -114
279 l-34 33 44 48 c66 70 97 144 102 245 l5 82 -77 0 -76 0 0 -62 c0 -79 -24
-133 -79 -179 -45 -40 -98 -59 -158 -59 -48 0 -137 -25 -179 -51 -17 -10 -34
-19 -38 -19 -3 0 -6 153 -6 340 l0 340 -70 0 -70 0 0 -530z"/>
<path d="M3070 1190 l0 -70 185 0 185 0 0 70 0 70 -185 0 -185 0 0 -70z"/>
<path d="M3813 1175 c-64 -19 -124 -58 -172 -110 -167 -182 -107 -483 118
-592 50 -25 67 -27 161 -28 96 0 110 2 161 29 32 15 79 50 105 77 l48 49 -49
50 -49 49 -42 -39 c-53 -48 -87 -66 -145 -75 -44 -7 -129 8 -129 23 0 4 93
100 207 214 l207 208 -39 41 c-99 102 -254 144 -382 104z m188 -146 c21 -11
13 -19 -130 -163 -144 -143 -153 -150 -166 -132 -24 32 -19 135 8 186 27 51
78 96 133 116 43 16 120 12 155 -7z"/>
<path d="M4563 1176 c-178 -58 -287 -230 -262 -414 5 -32 17 -80 28 -106 28
-64 109 -147 178 -182 53 -27 67 -29 163 -29 95 0 111 3 162 28 31 15 80 49
108 74 l51 46 -52 54 -53 53 -41 -39 c-48 -46 -85 -66 -141 -76 -41 -6 -124 9
-124 23 0 4 92 99 205 212 l205 205 -52 52 c-71 72 -149 106 -253 110 -49 2
-96 -2 -122 -11z m163 -137 c24 -6 44 -14 44 -18 0 -3 -67 -74 -150 -156 -109
-109 -153 -146 -161 -138 -6 6 -13 38 -16 71 -5 53 -2 69 21 116 30 60 78 102
140 122 52 16 67 17 122 3z"/>
<path d="M3120 860 l0 -69 103 -3 102 -3 3 -71 c3 -64 0 -75 -22 -100 -24 -29
-26 -29 -130 -29 l-106 0 0 -72 0 -73 118 0 c146 0 182 10 237 65 61 61 75
114 75 287 l0 138 -190 0 -190 0 0 -70z"/>
</g>
</svg>
