<svg width="222" height="223" viewBox="0 0 222 223" fill="none" xmlns="http://www.w3.org/2000/svg">
<g id="Ps">
<path id="Vector" d="M159.5 120.3C162.3 122.9 163.7 126.5 163.7 131.2C163.7 136.3 161.7 140.6 157.8 144.3C153.9 147.9 148.1 149.8 140.5 149.8C133.7 149.8 128.2 148.2 124.1 145.1C120.1 142.1 117.4 137.9 116.1 132.6L129.8 130.3C130.4 133.2 131.5 135.3 133.2 136.8C134.9 138.3 137.4 139 140.7 139C144.1 139 146.7 138.3 148.5 136.9C149.6 136 150.1 134.7 150.1 133C150.1 131.9 149.8 131 149.2 130.2C148.5 129.6 147 128.9 144.8 128.3C133.9 125.7 127 123.2 124 121C120 118.1 118 113.9 118 108.6C118 103.9 119.7 99.9 123.1 96.6C126.6 93.2 132 91.6 139.2 91.6C146.3 91.6 151.4 92.9 154.7 95.3C158.1 97.7 160.5 101.4 161.8 106.3L149.1 108.9C148.6 106.8 147.6 105.1 146.1 104C144.5 102.8 142.3 102.2 139.5 102.2C136 102.2 133.5 102.8 132 103.9C131 104.5 130.5 105.5 130.5 106.9C130.5 107.9 130.9 108.8 131.8 109.5C133 110.5 137.2 111.9 144.2 113.7C151.6 115.5 156.7 117.7 159.5 120.3Z" fill="#37C5FF"/>
<path id="Vector_2" d="M107.4 80.6C110.2 84.5 111.6 89.4 111.6 95.5C111.6 100.2 110.8 104.2 109.4 107.4C107.8 110.7 105.8 113.3 103.4 115.1C101 116.8 98.5 118 95.9 118.6C92.6 119.3 87.8 119.7 81.4 119.7H72.1V148.6H57.9V72.2H80.5C89.2 72.2 94.8 72.5 97.4 73.3C101.4 74.3 104.7 76.8 107.4 80.6ZM95.5 101.7C96.6 99.9 97.2 97.9 97.2 95.6C97.2 92.9 96.4 90.6 94.7 88.9C93.2 87.1 91.3 86 88.9 85.6C87.3 85.2 83.9 85 78.8 85H72V106.7H79.7C85.3 106.7 89.1 106.3 90.9 105.6C92.8 104.6 94.3 103.3 95.5 101.7Z" fill="#37C5FF"/>
<path id="Vector_3" d="M70.3 209.3C57.5 204 46 196.3 36 186.3C26 176.3 18.3 164.8 13 152C7.7 139.2 5 125.7 5 111.6C5 97.5 7.6 84 13 71.2C18.3 58.4 26 46.9 36 36.9C46 26.9 57.5 19.2 70.3 13.9C83.1 8.60002 96.6 5.90002 110.7 5.90002C124.8 5.90002 138.3 8.50002 151.1 13.9C163.9 19.2 175.4 26.9 185.4 36.9C195.5 46.9 203.1 58.4 208.5 71.2C213.8 84 216.5 97.5 216.5 111.6C216.5 125.7 213.8 139.2 208.5 152C203.2 164.8 195.5 176.3 185.4 186.3C175.3 196.4 163.9 204 151.1 209.3C138.3 214.6 124.8 217.3 110.7 217.3C96.6 217.3 83.2 214.6 70.3 209.3Z" stroke="#37C5FF" stroke-width="10" stroke-miterlimit="10"/>
</g>
</svg>
